<?xml version="1.0" standalone="no"?>
<!DOCTYPE svg PUBLIC "-//W3C//DTD SVG 20010904//EN"
 "http://www.w3.org/TR/2001/REC-SVG-20010904/DTD/svg10.dtd">
<svg version="1.0" xmlns="http://www.w3.org/2000/svg"
 width="78.000000pt" height="78.000000pt" viewBox="0 0 78.000000 78.000000"
 preserveAspectRatio="xMidYMid meet">
<metadata>
Created by potrace 1.11, written by Peter Selinger 2001-2013
</metadata>
<g transform="translate(0.000000,78.000000) scale(0.100000,-0.100000)"
fill="#000000" stroke="none">
<path d="M357 730 l-29 -41 -44 25 -43 24 -14 -46 -13 -47 -47 3 -48 4 3 -48
3 -48 -47 -14 -48 -13 27 -41 26 -42 -39 -33 c-38 -31 -38 -33 -19 -47 64 -46
61 -39 37 -78 -12 -20 -22 -40 -22 -45 0 -6 20 -16 44 -22 l44 -11 -5 -49 -5
-50 50 6 49 5 12 -46 c12 -48 20 -50 66 -19 29 19 38 16 65 -23 l24 -36 33 38
33 39 39 -22 c22 -13 42 -23 44 -23 3 0 10 21 16 46 l12 46 50 -5 51 -6 -6 50
-6 49 45 11 c25 6 45 15 45 20 0 4 -10 24 -22 45 -24 41 -27 34 37 80 19 14
19 16 -20 48 l-39 33 27 41 27 41 -38 11 c-20 5 -43 10 -49 10 -9 0 -11 15 -7
55 5 44 4 54 -7 51 -8 -3 -31 -7 -51 -9 -36 -5 -38 -3 -48 32 -5 20 -10 42
-10 49 0 10 -13 6 -44 -12 l-43 -25 -34 39 -34 40 -28 -40z"/>
</g>
</svg>
